<svg width="300" height="60" viewBox="0 0 300 60" fill="none" xmlns="http://www.w3.org/2000/svg">
<g clip-path="url(#clip0_190_875)">
<path d="M107.57 45.1135C119.598 45.1135 126.902 36.6323 126.902 24.0608C126.902 11.4292 119.598 3.00818 107.57 3.00818H95.2683V45.1135H107.57ZM100.046 7.82021H107.57C116.907 7.82021 122.014 14.1962 122.014 24.0608C122.014 33.8655 116.907 40.3015 107.57 40.3015H100.046V7.82021Z" fill="black"/>
<path d="M145.166 45.4743C151.646 45.4743 156.26 40.9631 157.358 34.8277H152.8C151.866 38.7977 148.79 41.0834 144.836 41.0834C139.509 41.0834 136.159 36.9931 135.994 31.1586V30.7374H157.742C157.797 30.0157 157.852 29.294 157.852 28.6323C157.633 19.5495 152.47 14.0758 144.562 14.0758C136.653 14.0758 131.271 20.4517 131.271 29.7751C131.271 39.1585 136.763 45.4743 145.166 45.4743ZM136.269 26.6472C136.708 21.6547 140.498 18.4066 144.616 18.4066C149.285 18.4066 152.58 21.354 153.019 26.6472H136.269Z" fill="black"/>
<path d="M159.704 18.948H164.756V45.1135H169.26V18.948H177.168V14.4367H169.26V10.8879C169.26 8.54201 170.084 7.51946 172.335 7.51946H177.168V3.00818H172.061C166.843 3.00818 164.756 5.59464 164.756 11.0082V14.4367H159.704V18.948Z" fill="black"/>
<path d="M182.728 9.26376C184.376 9.26376 185.639 7.94044 185.639 6.07579C185.639 4.21113 184.376 2.88782 182.728 2.88782C181.081 2.88782 179.818 4.21113 179.818 6.07579C179.818 7.94044 181.081 9.26376 182.728 9.26376ZM180.422 45.1134H184.925V14.4367H180.422V45.1134Z" fill="black"/>
<path d="M189.941 35.0083C190.051 41.7451 195.049 45.4743 202.298 45.4743C208.504 45.4743 213.502 41.9254 213.502 36.2111C213.502 29.4143 208.394 28.0908 202.024 27.2487C197.96 26.7074 194.994 26.2863 194.994 22.9179C194.994 20.0908 197.63 18.2863 201.53 18.2863C205.374 18.2863 208.01 20.6322 208.34 23.76H212.953C212.513 17.3841 207.9 14.1359 201.53 14.0758C195.214 14.0156 190.545 17.6848 190.545 23.2788C190.545 29.6548 195.543 31.0383 201.804 31.8803C205.978 32.4217 209.054 32.7225 209.054 36.572C209.054 39.3991 206.253 41.2637 202.298 41.2637C197.63 41.2637 194.719 38.6171 194.555 35.0083H189.941Z" fill="black"/>
<path d="M232.616 14.0758C227.892 14.0758 224.872 16.5419 223.004 19.369L222.4 14.4367H218.501V57.1434H223.004V40.4217C224.707 43.3691 227.892 45.4743 232.616 45.4743C240.359 45.4743 246.071 39.1585 246.071 29.7751C246.071 19.7901 240.359 14.0758 232.616 14.0758ZM232.176 41.0834C226.684 41.0834 222.95 36.3917 222.95 29.6548C222.95 23.0983 226.684 18.4668 232.176 18.4668C237.723 18.4668 241.458 23.0983 241.458 29.7751C241.458 36.4517 237.723 41.0834 232.176 41.0834Z" fill="black"/>
<path d="M264.123 45.4743C272.306 45.4743 278.019 39.0983 278.019 29.7751C278.019 20.4517 272.306 14.0758 264.123 14.0758C255.94 14.0758 250.228 20.4517 250.228 29.7751C250.228 39.0983 255.94 45.4743 264.123 45.4743ZM264.123 41.0834C258.576 41.0834 254.842 36.3314 254.842 29.7751C254.842 23.2187 258.576 18.4668 264.123 18.4668C269.671 18.4668 273.404 23.2187 273.404 29.7751C273.404 36.3314 269.671 41.0834 264.123 41.0834Z" fill="black"/>
<path d="M284.948 37.1134C284.948 42.5269 286.87 45.1134 292.252 45.1134H297.138V40.6023H292.69C290.275 40.6023 289.45 39.6397 289.45 37.0531V18.948H296.7V14.4367H289.45V5.83521H284.948V14.4367H279.895V18.948H284.948V37.1134Z" fill="black"/>
<mask id="mask0_190_875" style="mask-type:luminance" maskUnits="userSpaceOnUse" x="92" y="0" width="207" height="61">
<path d="M298.747 0.0306396H92.6595V60.0306H298.747V0.0306396Z" fill="white"/>
<path d="M107.57 45.1133C119.598 45.1133 126.902 36.6322 126.902 24.0607C126.902 11.4291 119.598 3.00806 107.57 3.00806H95.2682V45.1133H107.57ZM100.046 7.82009H107.57C116.907 7.82009 122.014 14.196 122.014 24.0607C122.014 33.8653 116.907 40.3013 107.57 40.3013H100.046V7.82009Z" fill="black"/>
<path d="M145.166 45.4743C151.646 45.4743 156.26 40.9631 157.358 34.8277H152.8C151.866 38.7977 148.79 41.0834 144.836 41.0834C139.509 41.0834 136.159 36.9931 135.994 31.1586V30.7374H157.742C157.797 30.0157 157.852 29.294 157.852 28.6323C157.633 19.5495 152.47 14.0758 144.562 14.0758C136.653 14.0758 131.271 20.4517 131.271 29.7751C131.271 39.1585 136.763 45.4743 145.166 45.4743ZM136.269 26.6472C136.708 21.6547 140.498 18.4066 144.616 18.4066C149.285 18.4066 152.58 21.354 153.019 26.6472H136.269Z" fill="black"/>
<path d="M159.703 18.9479H164.756V45.1133H169.26V18.9479H177.168V14.4366H169.26V10.8878C169.26 8.54189 170.083 7.51934 172.335 7.51934H177.168V3.00806H172.061C166.843 3.00806 164.756 5.59451 164.756 11.0081V14.4366H159.703V18.9479Z" fill="black"/>
<path d="M182.728 9.26376C184.376 9.26376 185.639 7.94044 185.639 6.07579C185.639 4.21113 184.376 2.88782 182.728 2.88782C181.081 2.88782 179.818 4.21113 179.818 6.07579C179.818 7.94044 181.081 9.26376 182.728 9.26376ZM180.422 45.1134H184.925V14.4367H180.422V45.1134Z" fill="black"/>
<path d="M189.941 35.0083C190.051 41.7451 195.049 45.4743 202.298 45.4743C208.504 45.4743 213.502 41.9254 213.502 36.2111C213.502 29.4143 208.394 28.0908 202.024 27.2487C197.96 26.7074 194.994 26.2863 194.994 22.9179C194.994 20.0908 197.63 18.2863 201.53 18.2863C205.374 18.2863 208.01 20.6322 208.34 23.76H212.953C212.513 17.3841 207.9 14.1359 201.53 14.0758C195.214 14.0156 190.545 17.6848 190.545 23.2788C190.545 29.6548 195.543 31.0383 201.804 31.8803C205.978 32.4217 209.054 32.7225 209.054 36.572C209.054 39.3991 206.253 41.2637 202.298 41.2637C197.63 41.2637 194.719 38.6171 194.555 35.0083H189.941Z" fill="black"/>
<path d="M232.616 14.0758C227.892 14.0758 224.872 16.5419 223.004 19.369L222.4 14.4367H218.501V57.1434H223.004V40.4217C224.707 43.3691 227.892 45.4743 232.616 45.4743C240.359 45.4743 246.071 39.1585 246.071 29.7751C246.071 19.7901 240.359 14.0758 232.616 14.0758ZM232.176 41.0834C226.684 41.0834 222.95 36.3917 222.95 29.6548C222.95 23.0983 226.684 18.4668 232.176 18.4668C237.723 18.4668 241.458 23.0983 241.458 29.7751C241.458 36.4517 237.723 41.0834 232.176 41.0834Z" fill="black"/>
<path d="M264.123 45.4743C272.306 45.4743 278.019 39.0983 278.019 29.7751C278.019 20.4517 272.306 14.0758 264.123 14.0758C255.94 14.0758 250.228 20.4517 250.228 29.7751C250.228 39.0983 255.94 45.4743 264.123 45.4743ZM264.123 41.0834C258.576 41.0834 254.842 36.3314 254.842 29.7751C254.842 23.2187 258.576 18.4668 264.123 18.4668C269.671 18.4668 273.404 23.2187 273.404 29.7751C273.404 36.3314 269.671 41.0834 264.123 41.0834Z" fill="black"/>
<path d="M284.948 37.1134C284.948 42.5269 286.87 45.1134 292.252 45.1134H297.138V40.6023H292.69C290.275 40.6023 289.45 39.6397 289.45 37.0531V18.948H296.7V14.4367H289.45V5.83521H284.948V14.4367H279.895V18.948H284.948V37.1134Z" fill="black"/>
</mask>
<g mask="url(#mask0_190_875)">
<path d="M95.2683 3.00811V2.57953H94.877V3.00811H95.2683ZM95.2683 45.1134H94.877V45.542H95.2683V45.1134ZM100.046 7.82014V7.39157H99.655V7.82014H100.046ZM100.046 40.3014H99.655V40.73H100.046V40.3014ZM157.358 34.8277L157.742 34.9103L157.833 34.3991H157.358V34.8277ZM152.8 34.8277V34.3991H152.496L152.421 34.7208L152.8 34.8277ZM135.994 31.1585H135.603L135.603 31.1717L135.994 31.1585ZM135.994 30.7374V30.3088H135.603V30.7374H135.994ZM157.742 30.7374V31.166H158.102L158.132 30.7731L157.742 30.7374ZM157.852 28.6323H158.244L158.243 28.6208L157.852 28.6323ZM136.269 26.6472L135.879 26.6061L135.838 27.0758H136.269V26.6472ZM153.019 26.6472V27.0758H153.448L153.409 26.6084L153.019 26.6472ZM159.704 18.948H159.312V19.3765H159.704V18.948ZM164.756 18.948H165.148V18.5194H164.756V18.948ZM164.756 45.1134H164.365V45.542H164.756V45.1134ZM169.26 45.1134V45.542H169.651V45.1134H169.26ZM169.26 18.948V18.5194H168.868V18.948H169.26ZM177.168 18.948V19.3765H177.56V18.948H177.168ZM177.168 14.4367H177.56V14.0081H177.168V14.4367ZM169.26 14.4367H168.868V14.8653H169.26V14.4367ZM177.168 7.51939V7.94797H177.56V7.51939H177.168ZM177.168 3.00811H177.56V2.57953H177.168V3.00811ZM164.756 14.4367V14.8653H165.148V14.4367H164.756ZM159.704 14.4367V14.0081H159.312V14.4367H159.704ZM180.422 45.1134H180.031V45.542H180.422V45.1134ZM184.925 45.1134V45.542H185.317V45.1134H184.925ZM184.925 14.4367H185.317V14.0081H184.925V14.4367ZM180.422 14.4367V14.0081H180.031V14.4367H180.422ZM189.941 35.0083V34.5797H189.543L189.55 35.0157L189.941 35.0083ZM208.34 23.76L207.951 23.8091L207.991 24.1886H208.34V23.76ZM212.953 23.76V24.1886H213.375L213.343 23.7277L212.953 23.76ZM194.555 35.0083L194.945 34.9868L194.927 34.5797H194.555V35.0083ZM223.004 19.369L222.617 19.426L222.747 20.4901L223.322 19.6202L223.004 19.369ZM222.4 14.4367L222.788 14.3797L222.743 14.0081H222.4V14.4367ZM218.501 14.4367V14.0081H218.11V14.4367H218.501ZM218.501 57.1434H218.11V57.572H218.501V57.1434ZM223.004 57.1434V57.572H223.396V57.1434H223.004ZM223.004 40.4217L223.335 40.1925L222.613 38.9425V40.4217H223.004ZM297.138 45.1134V45.542H297.53V45.1134H297.138ZM297.138 40.6023H297.53V40.1737H297.138V40.6023ZM289.45 18.948V18.5194H289.059V18.948H289.45ZM296.7 18.948V19.3765H297.091V18.948H296.7ZM296.7 14.4367H297.091V14.0081H296.7V14.4367ZM289.45 14.4367H289.059V14.8653H289.45V14.4367ZM289.45 5.83517H289.842V5.40659H289.45V5.83517ZM284.948 5.83517V5.40659H284.557V5.83517H284.948ZM284.948 14.4367V14.8653H285.339V14.4367H284.948ZM279.895 14.4367V14.0081H279.503V14.4367H279.895ZM279.895 18.948H279.503V19.3765H279.895V18.948ZM284.948 18.948H285.339V18.5194H284.948V18.948ZM107.57 45.542C113.67 45.542 118.61 43.3891 122.025 39.6025C125.439 35.8168 127.294 30.4383 127.294 24.0608H126.511C126.511 30.2548 124.713 35.4025 121.468 39.0003C118.224 42.5968 113.498 44.6848 107.57 44.6848V45.542ZM127.294 24.0608C127.294 17.6536 125.44 12.2747 122.025 8.49608C118.609 4.71668 113.669 2.57953 107.57 2.57953V3.43668C113.499 3.43668 118.225 5.51005 121.468 9.09908C124.713 12.6889 126.511 17.8363 126.511 24.0608H127.294ZM107.57 2.57953H95.2683V3.43668H107.57V2.57953ZM94.877 3.00811V45.1134H95.6596V3.00811H94.877ZM95.2683 45.542H107.57V44.6848H95.2683V45.542ZM100.046 8.24871H107.57V7.39157H100.046V8.24871ZM107.57 8.24871C112.155 8.24871 115.654 9.81168 118.009 12.5359C120.367 15.2635 121.623 19.2074 121.623 24.0608H122.406C122.406 19.0495 121.108 14.873 118.578 11.9465C116.045 9.01657 112.322 7.39157 107.57 7.39157V8.24871ZM121.623 24.0608C121.623 28.8834 120.368 32.828 118.009 35.5634C115.654 38.2954 112.154 39.8728 107.57 39.8728V40.73C112.323 40.73 116.046 39.0891 118.578 36.152C121.107 33.2185 122.406 29.0425 122.406 24.0608H121.623ZM107.57 39.8728H100.046V40.73H107.57V39.8728ZM100.438 40.3014V7.82014H99.655V40.3014H100.438ZM145.166 45.9028C151.834 45.9028 156.608 41.2463 157.742 34.9103L156.974 34.7451C155.912 40.6797 151.459 45.0457 145.166 45.0457V45.9028ZM157.358 34.3991H152.8V35.2563H157.358V34.3991ZM152.421 34.7208C151.539 38.4714 148.642 40.6548 144.836 40.6548V41.512C148.939 41.512 152.193 39.124 153.178 34.9345L152.421 34.7208ZM144.836 40.6548C142.269 40.6548 140.206 39.672 138.763 38.0134C137.316 36.3508 136.465 33.9765 136.385 31.1454L135.603 31.1717C135.688 34.1748 136.594 36.7631 138.196 38.6045C139.801 40.4494 142.076 41.512 144.836 41.512V40.6548ZM136.385 31.1585V30.7374H135.603L135.603 31.1585H136.385ZM135.994 31.166H157.742V30.3088H135.994V31.166ZM158.132 30.7731C158.187 30.0554 158.244 29.3151 158.244 28.6323H157.461C157.461 29.2725 157.408 29.976 157.352 30.702L158.132 30.7731ZM158.243 28.6208C158.131 23.9922 156.758 20.2399 154.366 17.6436C151.973 15.0466 148.6 13.6472 144.562 13.6472V14.5044C148.432 14.5044 151.594 15.8418 153.815 18.2524C156.036 20.6636 157.353 24.1895 157.461 28.6434L158.243 28.6208ZM144.562 13.6472C140.507 13.6472 137.077 15.2845 134.663 18.1379C132.252 20.9886 130.88 25.023 130.88 29.7751H131.662C131.662 25.2038 132.981 21.3886 135.238 18.7204C137.492 16.055 140.708 14.5044 144.562 14.5044V13.6472ZM130.88 29.7751C130.88 34.5591 132.281 38.5968 134.786 41.4411C137.292 44.2868 140.872 45.9028 145.166 45.9028V45.0457C141.057 45.0457 137.69 43.504 135.349 40.846C133.007 38.1865 131.662 34.3743 131.662 29.7751H130.88ZM136.658 26.6883C137.077 21.9343 140.681 18.8352 144.616 18.8352V17.9781C140.314 17.9781 136.34 21.3752 135.879 26.6061L136.658 26.6883ZM144.616 18.8352C146.876 18.8352 148.769 19.5474 150.146 20.8648C151.521 22.18 152.417 24.1318 152.63 26.686L153.409 26.6084C153.182 23.8695 152.21 21.7009 150.661 20.2191C149.114 18.7395 147.026 17.9781 144.616 17.9781V18.8352ZM153.019 26.2187H136.269V27.0758H153.019V26.2187ZM159.704 19.3765H164.756V18.5194H159.704V19.3765ZM164.365 18.948V45.1134H165.148V18.948H164.365ZM164.756 45.542H169.26V44.6848H164.756V45.542ZM169.651 45.1134V18.948H168.868V45.1134H169.651ZM169.26 19.3765H177.168V18.5194H169.26V19.3765ZM177.56 18.948V14.4367H176.777V18.948H177.56ZM177.168 14.0081H169.26V14.8653H177.168V14.0081ZM169.651 14.4367V10.8878H168.868V14.4367H169.651ZM169.651 10.8878C169.651 9.75405 169.853 9.05148 170.234 8.62271C170.612 8.19648 171.251 7.94797 172.335 7.94797V7.09082C171.168 7.09082 170.269 7.35359 169.672 8.02508C169.078 8.69405 168.868 9.67571 168.868 10.8878H169.651ZM172.335 7.94797H177.168V7.09082H172.335V7.94797ZM177.56 7.51939V3.00811H176.777V7.51939H177.56ZM177.168 2.57953H172.061V3.43668H177.168V2.57953ZM172.061 2.57953C169.402 2.57953 167.45 3.23762 166.171 4.67937C164.895 6.11862 164.365 8.25274 164.365 11.0081H165.148C165.148 8.34994 165.662 6.48405 166.732 5.27668C167.801 4.07179 169.502 3.43668 172.061 3.43668V2.57953ZM164.365 11.0081V14.4367H165.148V11.0081H164.365ZM164.756 14.0081H159.704V14.8653H164.756V14.0081ZM159.312 14.4367V18.948H160.095V14.4367H159.312ZM182.728 9.69231C184.587 9.69231 186.031 8.18245 186.031 6.07577H185.248C185.248 7.69842 184.165 8.83517 182.728 8.83517V9.69231ZM186.031 6.07577C186.031 3.96908 184.587 2.45923 182.728 2.45923V3.31637C184.165 3.31637 185.248 4.45314 185.248 6.07577H186.031ZM182.728 2.45923C180.869 2.45923 179.426 3.96908 179.426 6.07577H180.209C180.209 4.45314 181.292 3.31637 182.728 3.31637V2.45923ZM179.426 6.07577C179.426 8.18245 180.869 9.69231 182.728 9.69231V8.83517C181.292 8.83517 180.209 7.69839 180.209 6.07577H179.426ZM180.422 45.542H184.925V44.6848H180.422V45.542ZM185.317 45.1134V14.4367H184.534V45.1134H185.317ZM184.925 14.0081H180.422V14.8653H184.925V14.0081ZM180.031 14.4367V45.1134H180.813V14.4367H180.031ZM189.55 35.0157C189.607 38.5125 190.939 41.2548 193.208 43.1108C195.465 44.9568 198.618 45.9028 202.298 45.9028V45.0457C198.729 45.0457 195.758 44.1271 193.677 42.4243C191.607 40.7314 190.385 38.2405 190.333 35.0005L189.55 35.0157ZM202.298 45.9028C205.465 45.9028 208.351 44.9983 210.457 43.3331C212.571 41.6611 213.893 39.2223 213.893 36.2111H213.111C213.111 38.9143 211.934 41.1071 209.998 42.6383C208.054 44.176 205.338 45.0457 202.298 45.0457V45.9028ZM213.893 36.2111C213.893 34.452 213.562 33.0174 212.943 31.8468C212.323 30.6757 211.43 29.7968 210.345 29.124C208.194 27.7903 205.249 27.2434 202.071 26.8233L201.976 27.6742C205.169 28.0961 207.963 28.632 209.959 29.8697C210.947 30.4828 211.729 31.2617 212.266 32.2765C212.803 33.292 213.111 34.5717 213.111 36.2111H213.893ZM202.071 26.8233C200.018 26.5498 198.326 26.3139 197.141 25.7503C196.558 25.4735 196.127 25.1296 195.839 24.6898C195.554 24.2539 195.385 23.6878 195.385 22.9179H194.603C194.603 23.8322 194.805 24.5819 195.203 25.1893C195.598 25.7926 196.162 26.2195 196.829 26.5366C198.142 27.161 199.966 27.4063 201.976 27.6742L202.071 26.8233ZM195.385 22.9179C195.385 21.6734 195.958 20.6418 197.011 19.9028C198.075 19.1558 199.628 18.7149 201.53 18.7149V17.8577C199.531 17.8577 197.817 18.3191 196.588 19.1811C195.349 20.0511 194.603 21.3353 194.603 22.9179H195.385ZM201.53 18.7149C205.234 18.7149 207.65 20.9561 207.951 23.8091L208.728 23.7109C208.37 20.3083 205.514 17.8577 201.53 17.8577V18.7149ZM208.34 24.1886H212.953V23.3314H208.34V24.1886ZM213.343 23.7277C213.115 20.4214 211.798 17.8986 209.697 16.2044C207.607 14.5189 204.773 13.6778 201.533 13.6472L201.526 14.5043C204.657 14.5339 207.314 15.3469 209.233 16.8946C211.142 18.4335 212.351 20.7226 212.563 23.7923L213.343 23.7277ZM201.533 13.6472C198.309 13.6165 195.474 14.537 193.434 16.2143C191.387 17.898 190.154 20.3369 190.154 23.2788H190.937C190.937 20.6267 192.038 18.4341 193.904 16.8997C195.777 15.3589 198.434 14.4749 201.526 14.5043L201.533 13.6472ZM190.154 23.2788C190.154 24.9359 190.479 26.2967 191.088 27.4138C191.697 28.5305 192.573 29.376 193.636 30.0285C195.743 31.3231 198.63 31.8851 201.756 32.3057L201.852 31.4548C198.717 31.0334 195.975 30.4828 194.018 29.2808C193.049 28.6854 192.285 27.9369 191.76 26.9746C191.236 26.0128 190.937 24.8097 190.937 23.2788H190.154ZM201.756 32.3057C203.872 32.58 205.612 32.786 206.836 33.3777C207.434 33.6668 207.881 34.0371 208.183 34.5297C208.483 35.0211 208.662 35.6734 208.662 36.572H209.445C209.445 35.546 209.239 34.7168 208.833 34.0525C208.427 33.3891 207.844 32.9283 207.152 32.5934C205.794 31.9368 203.91 31.7217 201.852 31.4548L201.756 32.3057ZM208.662 36.572C208.662 37.8068 208.058 38.8557 206.951 39.6148C205.836 40.38 204.225 40.8351 202.298 40.8351V41.6923C204.326 41.6923 206.092 41.2154 207.367 40.3414C208.649 39.4614 209.445 38.1643 209.445 36.572H208.662ZM202.298 40.8351C200.029 40.8351 198.224 40.192 196.975 39.1485C195.732 38.1097 195.022 36.6611 194.945 34.9868L194.164 35.0294C194.252 36.9643 195.08 38.6434 196.5 39.83C197.915 41.0123 199.899 41.6923 202.298 41.6923V40.8351ZM194.555 34.5797H189.941V35.4368H194.555V34.5797ZM232.616 13.6472C227.745 13.6472 224.614 16.2003 222.687 19.1178L223.322 19.6202C225.129 16.8836 228.04 14.5044 232.616 14.5044V13.6472ZM223.392 19.3121L222.788 14.3797L222.013 14.4937L222.617 19.426L223.392 19.3121ZM222.4 14.0081H218.501V14.8653H222.4V14.0081ZM218.11 14.4367V57.1434H218.892V14.4367H218.11ZM218.501 57.572H223.004V56.7148H218.501V57.572ZM223.396 57.1434V40.4217H222.613V57.1434H223.396ZM222.674 40.6508C224.458 43.7391 227.777 45.9028 232.616 45.9028V45.0457C228.007 45.0457 224.956 42.9991 223.335 40.1925L222.674 40.6508ZM232.616 45.9028C236.588 45.9028 240.056 44.2808 242.53 41.4391C245.003 38.5985 246.462 34.5637 246.462 29.7751H245.68C245.68 34.37 244.282 38.1848 241.964 40.8477C239.646 43.51 236.387 45.0457 232.616 45.0457V45.9028ZM246.462 29.7751C246.462 24.6914 245.006 20.6517 242.527 17.881C240.047 15.1106 236.577 13.6472 232.616 13.6472V14.5044C236.398 14.5044 239.656 15.8981 241.967 18.4811C244.279 21.0638 245.68 24.8737 245.68 29.7751H246.462ZM232.176 40.6548C229.538 40.6548 227.34 39.5314 225.797 37.6123C224.25 35.6883 223.341 32.9377 223.341 29.6548H222.558C222.558 33.1088 223.516 36.0723 225.21 38.1785C226.907 40.2894 229.322 41.512 232.176 41.512V40.6548ZM223.341 29.6548C223.341 26.465 224.249 23.7752 225.795 21.8883C227.337 20.0052 229.537 18.8953 232.176 18.8953V18.0382C229.324 18.0382 226.91 19.2441 225.212 21.3159C223.518 23.3839 222.558 26.2881 222.558 29.6548H223.341ZM232.176 18.8953C234.844 18.8953 237.056 20.006 238.605 21.9029C240.158 23.8038 241.066 26.5233 241.066 29.7751H241.849C241.849 26.3501 240.89 23.4155 239.189 21.3315C237.483 19.2434 235.055 18.0382 232.176 18.0382V18.8953ZM241.066 29.7751C241.066 33.0268 240.158 35.7463 238.605 37.6471C237.056 39.5443 234.844 40.6548 232.176 40.6548V41.512C235.055 41.512 237.483 40.3068 239.189 38.2185C240.89 36.1345 241.849 33.2 241.849 29.7751H241.066ZM264.123 45.9028C268.31 45.9028 271.889 44.2694 274.419 41.4197C276.95 38.5708 278.41 34.5343 278.41 29.7751H277.628C277.628 34.3391 276.23 38.1523 273.858 40.822C271.487 43.4911 268.119 45.0457 264.123 45.0457V45.9028ZM278.41 29.7751C278.41 25.0158 276.95 20.9793 274.419 18.1303C271.889 15.2806 268.31 13.6472 264.123 13.6472V14.5044C268.119 14.5044 271.487 16.0589 273.858 18.728C276.23 21.3979 277.628 25.211 277.628 29.7751H278.41ZM264.123 13.6472C259.936 13.6472 256.358 15.2806 253.827 18.1303C251.296 20.9793 249.837 25.0158 249.837 29.7751H250.62C250.62 25.211 252.016 21.3979 254.388 18.728C256.758 16.0589 260.128 14.5044 264.123 14.5044V13.6472ZM249.837 29.7751C249.837 34.5343 251.296 38.5708 253.827 41.4197C256.358 44.2694 259.936 45.9028 264.123 45.9028V45.0457C260.128 45.0457 256.758 43.4911 254.388 40.822C252.016 38.1523 250.62 34.3391 250.62 29.7751H249.837ZM264.123 40.6548C261.459 40.6548 259.246 39.5165 257.695 37.6034C256.141 35.686 255.233 32.9651 255.233 29.7751H254.45C254.45 33.1414 255.41 36.0748 257.11 38.1723C258.813 40.2743 261.24 41.512 264.123 41.512V40.6548ZM255.233 29.7751C255.233 26.585 256.141 23.8642 257.695 21.9468C259.246 20.0335 261.459 18.8953 264.123 18.8953V18.0382C261.24 18.0382 258.813 19.276 257.11 21.3777C255.41 23.4754 254.45 26.4087 254.45 29.7751H255.233ZM264.123 18.8953C266.789 18.8953 269.001 20.0335 270.55 21.9468C272.105 23.8642 273.013 26.585 273.013 29.7751H273.796C273.796 26.4087 272.836 23.4754 271.137 21.3777C269.434 19.276 267.005 18.0382 264.123 18.0382V18.8953ZM273.013 29.7751C273.013 32.9651 272.105 35.686 270.55 37.6034C269.001 39.5165 266.789 40.6548 264.123 40.6548V41.512C267.005 41.512 269.434 40.2743 271.137 38.1723C272.836 36.0748 273.796 33.1414 273.796 29.7751H273.013ZM284.557 37.1134C284.557 39.8611 285.042 41.9974 286.299 43.4394C287.559 44.8857 289.513 45.542 292.252 45.542V44.6848C289.607 44.6848 287.911 44.048 286.865 42.8477C285.814 41.6431 285.339 39.7794 285.339 37.1134H284.557ZM292.252 45.542H297.138V44.6848H292.252V45.542ZM297.53 45.1134V40.6023H296.747V45.1134H297.53ZM297.138 40.1737H292.69V41.0308H297.138V40.1737ZM292.69 40.1737C291.511 40.1737 290.838 39.9345 290.444 39.4965C290.048 39.0574 289.842 38.3177 289.842 37.0531H289.059C289.059 38.3754 289.265 39.41 289.886 40.0985C290.507 40.7885 291.454 41.0308 292.69 41.0308V40.1737ZM289.842 37.0531V18.948H289.059V37.0531H289.842ZM289.45 19.3765H296.7V18.5194H289.45V19.3765ZM297.091 18.948V14.4367H296.309V18.948H297.091ZM296.7 14.0081H289.45V14.8653H296.7V14.0081ZM289.842 14.4367V5.83517H289.059V14.4367H289.842ZM289.45 5.40659H284.948V6.26374H289.45V5.40659ZM284.557 5.83517V14.4367H285.339V5.83517H284.557ZM284.948 14.0081H279.895V14.8653H284.948V14.0081ZM279.503 14.4367V18.948H280.286V14.4367H279.503ZM279.895 19.3765H284.948V18.5194H279.895V19.3765ZM284.557 18.948V37.1134H285.339V18.948H284.557Z" fill="black"/>
</g>
<path d="M23.8412 23.2561H0V49.3679H23.8412V23.2561Z" fill="black"/>
<path d="M23.8451 0V23.2558L46.9414 48.5517H64.0771V22.8478L43.2162 0H23.8451Z" fill="black"/>
</g>
<defs>
<clipPath id="clip0_190_875">
<rect width="300" height="60" fill="white"/>
</clipPath>
</defs>
</svg>
