<svg width="115" height="21" viewBox="0 0 115 21" fill="none" xmlns="http://www.w3.org/2000/svg">
<g clip-path="url(#clip0_171_813)">
<path d="M41.2353 15.7897C45.8459 15.7897 48.6459 12.8213 48.6459 8.42129C48.6459 4.00023 45.8459 1.05286 41.2353 1.05286H36.5195V15.7897H41.2353ZM38.3511 2.73707H41.2353C44.8143 2.73707 46.7722 4.96865 46.7722 8.42129C46.7722 11.8529 44.8143 14.1055 41.2353 14.1055H38.3511V2.73707Z" fill="white"/>
<path d="M55.6469 15.916C58.1311 15.916 59.8995 14.3371 60.3205 12.1897H58.5732C58.2153 13.5792 57.0363 14.3792 55.5205 14.3792C53.4784 14.3792 52.1942 12.9476 52.1311 10.9055V10.7581H60.4679C60.489 10.5055 60.51 10.2529 60.51 10.0213C60.4258 6.84233 58.4469 4.92654 55.4153 4.92654C52.3837 4.92654 50.3205 7.15812 50.3205 10.4213C50.3205 13.7055 52.4258 15.916 55.6469 15.916ZM52.2363 9.32654C52.4047 7.57917 53.8574 6.44233 55.4363 6.44233C57.2258 6.44233 58.489 7.47391 58.6574 9.32654H52.2363Z" fill="white"/>
<path d="M61.2197 6.63181H63.1566V15.7897H64.8829V6.63181H67.9145V5.05286H64.8829V3.81076C64.8829 2.9897 65.1987 2.63181 66.0618 2.63181H67.9145V1.05286H65.9566C63.9566 1.05286 63.1566 1.95812 63.1566 3.85286V5.05286H61.2197V6.63181Z" fill="white"/>
<path d="M70.0459 3.24232C70.6775 3.24232 71.1617 2.77916 71.1617 2.12653C71.1617 1.4739 70.6775 1.01074 70.0459 1.01074C69.4143 1.01074 68.9301 1.4739 68.9301 2.12653C68.9301 2.77916 69.4143 3.24232 70.0459 3.24232ZM69.1617 15.7897H70.888V5.05285H69.1617V15.7897Z" fill="white"/>
<path d="M72.8108 12.2529C72.853 14.6108 74.7687 15.916 77.5477 15.916C79.9266 15.916 81.8424 14.6739 81.8424 12.6739C81.8424 10.295 79.8845 9.83179 77.4424 9.53706C75.8845 9.34758 74.7477 9.20021 74.7477 8.02127C74.7477 7.03179 75.7582 6.4002 77.253 6.4002C78.7266 6.4002 79.7372 7.22126 79.8635 8.316H81.6319C81.4635 6.08442 79.6951 4.94757 77.253 4.92652C74.8319 4.90546 73.0424 6.18967 73.0424 8.14757C73.0424 10.3792 74.9582 10.8634 77.3582 11.1581C78.9582 11.3476 80.1372 11.4529 80.1372 12.8002C80.1372 13.7897 79.0635 14.4423 77.5477 14.4423C75.7582 14.4423 74.6424 13.516 74.5793 12.2529H72.8108Z" fill="white"/>
<path d="M89.1693 4.92654C87.3587 4.92654 86.2008 5.78969 85.485 6.77917L85.2535 5.05285H83.7587V20.0002H85.485V14.1476C86.1377 15.1792 87.3587 15.916 89.1693 15.916C92.1377 15.916 94.3272 13.7055 94.3272 10.4213C94.3272 6.92654 92.1377 4.92654 89.1693 4.92654ZM89.0008 14.3792C86.8956 14.3792 85.464 12.7371 85.464 10.3792C85.464 8.08443 86.8956 6.46338 89.0008 6.46338C91.1271 6.46338 92.5587 8.08443 92.5587 10.4213C92.5587 12.7581 91.1271 14.3792 89.0008 14.3792Z" fill="white"/>
<path d="M101.247 15.916C104.384 15.916 106.574 13.6844 106.574 10.4213C106.574 7.15812 104.384 4.92654 101.247 4.92654C98.1104 4.92654 95.9209 7.15812 95.9209 10.4213C95.9209 13.6844 98.1104 15.916 101.247 15.916ZM101.247 14.3792C99.1209 14.3792 97.6893 12.716 97.6893 10.4213C97.6893 8.12654 99.1209 6.46338 101.247 6.46338C103.374 6.46338 104.805 8.12654 104.805 10.4213C104.805 12.716 103.374 14.3792 101.247 14.3792Z" fill="white"/>
<path d="M109.23 12.9897C109.23 14.8844 109.967 15.7897 112.03 15.7897H113.903V14.2108H112.198C111.272 14.2108 110.956 13.8739 110.956 12.9686V6.63181H113.735V5.05286H110.956V2.04233H109.23V5.05286H107.293V6.63181H109.23V12.9897Z" fill="white"/>
<mask id="mask0_171_813" style="mask-type:luminance" maskUnits="userSpaceOnUse" x="35" y="0" width="80" height="22">
<path d="M114.52 0.0107422H35.5195V21.0107H114.52V0.0107422Z" fill="white"/>
<path d="M41.2353 15.7897C45.8459 15.7897 48.6459 12.8213 48.6459 8.42129C48.6459 4.00023 45.8459 1.05286 41.2353 1.05286H36.5195V15.7897H41.2353ZM38.3511 2.73707H41.2353C44.8143 2.73707 46.7722 4.96865 46.7722 8.42129C46.7722 11.8529 44.8143 14.1055 41.2353 14.1055H38.3511V2.73707Z" fill="black"/>
<path d="M55.647 15.916C58.1312 15.916 59.8996 14.3371 60.3206 12.1897H58.5733C58.2154 13.5792 57.0364 14.3792 55.5206 14.3792C53.4785 14.3792 52.1943 12.9476 52.1312 10.9055V10.7581H60.468C60.4891 10.5055 60.5101 10.2529 60.5101 10.0213C60.4259 6.84233 58.447 4.92654 55.4154 4.92654C52.3838 4.92654 50.3206 7.15812 50.3206 10.4213C50.3206 13.7055 52.4259 15.916 55.647 15.916ZM52.2364 9.32654C52.4048 7.57917 53.8575 6.44233 55.4364 6.44233C57.2259 6.44233 58.4891 7.47391 58.6575 9.32654H52.2364Z" fill="black"/>
<path d="M61.2197 6.63181H63.1566V15.7897H64.8829V6.63181H67.9145V5.05286H64.8829V3.81076C64.8829 2.9897 65.1987 2.63181 66.0618 2.63181H67.9145V1.05286H65.9566C63.9566 1.05286 63.1566 1.95812 63.1566 3.85286V5.05286H61.2197V6.63181Z" fill="black"/>
<path d="M70.0459 3.24232C70.6775 3.24232 71.1617 2.77916 71.1617 2.12653C71.1617 1.4739 70.6775 1.01074 70.0459 1.01074C69.4143 1.01074 68.9301 1.4739 68.9301 2.12653C68.9301 2.77916 69.4143 3.24232 70.0459 3.24232ZM69.1617 15.7897H70.888V5.05285H69.1617V15.7897Z" fill="black"/>
<path d="M72.8109 12.2529C72.8531 14.6108 74.7688 15.916 77.5478 15.916C79.9267 15.916 81.8425 14.6739 81.8425 12.6739C81.8425 10.295 79.8846 9.83179 77.4425 9.53706C75.8846 9.34758 74.7478 9.20021 74.7478 8.02127C74.7478 7.03179 75.7583 6.4002 77.2531 6.4002C78.7267 6.4002 79.7373 7.22126 79.8636 8.316H81.632C81.4636 6.08442 79.6952 4.94757 77.2531 4.92652C74.832 4.90546 73.0424 6.18967 73.0424 8.14757C73.0424 10.3792 74.9583 10.8634 77.3583 11.1581C78.9583 11.3476 80.1373 11.4529 80.1373 12.8002C80.1373 13.7897 79.0636 14.4423 77.5478 14.4423C75.7583 14.4423 74.6425 13.516 74.5794 12.2529H72.8109Z" fill="black"/>
<path d="M89.1693 4.92654C87.3587 4.92654 86.2008 5.78969 85.485 6.77917L85.2535 5.05285H83.7587V20.0002H85.485V14.1476C86.1377 15.1792 87.3587 15.916 89.1693 15.916C92.1377 15.916 94.3272 13.7055 94.3272 10.4213C94.3272 6.92654 92.1377 4.92654 89.1693 4.92654ZM89.0008 14.3792C86.8956 14.3792 85.464 12.7371 85.464 10.3792C85.464 8.08443 86.8956 6.46338 89.0008 6.46338C91.1271 6.46338 92.5587 8.08443 92.5587 10.4213C92.5587 12.7581 91.1271 14.3792 89.0008 14.3792Z" fill="black"/>
<path d="M101.247 15.916C104.384 15.916 106.574 13.6844 106.574 10.4213C106.574 7.15812 104.384 4.92654 101.247 4.92654C98.1104 4.92654 95.9209 7.15812 95.9209 10.4213C95.9209 13.6844 98.1104 15.916 101.247 15.916ZM101.247 14.3792C99.1209 14.3792 97.6893 12.716 97.6893 10.4213C97.6893 8.12654 99.1209 6.46338 101.247 6.46338C103.374 6.46338 104.805 8.12654 104.805 10.4213C104.805 12.716 103.374 14.3792 101.247 14.3792Z" fill="black"/>
<path d="M109.23 12.9897C109.23 14.8844 109.967 15.7897 112.03 15.7897H113.903V14.2108H112.198C111.272 14.2108 110.956 13.8739 110.956 12.9686V6.63181H113.735V5.05286H110.956V2.04233H109.23V5.05286H107.293V6.63181H109.23V12.9897Z" fill="black"/>
</mask>
<g mask="url(#mask0_171_813)">
<path d="M36.5195 1.05286V0.902853H36.3695V1.05286H36.5195ZM36.5195 15.7897H36.3695V15.9397H36.5195V15.7897ZM38.3511 2.73707V2.58707H38.2011V2.73707H38.3511ZM38.3511 14.1055H38.2011V14.2555H38.3511V14.1055ZM60.3205 12.1897L60.4677 12.2186L60.5028 12.0397H60.3205V12.1897ZM58.5732 12.1897V12.0397H58.4569L58.4279 12.1523L58.5732 12.1897ZM52.1311 10.9055H51.981L51.9811 10.9101L52.1311 10.9055ZM52.1311 10.7581V10.6081H51.9811V10.7581H52.1311ZM60.4679 10.7581V10.9081H60.6059L60.6174 10.7706L60.4679 10.7581ZM60.51 10.0213H60.6601L60.66 10.0173L60.51 10.0213ZM52.2363 9.32655L52.087 9.31216L52.0712 9.47655H52.2363V9.32655ZM58.6574 9.32655V9.47655H58.8216L58.8068 9.31297L58.6574 9.32655ZM61.2197 6.63181H61.0697V6.78181H61.2197V6.63181ZM63.1566 6.63181H63.3066V6.48181H63.1566V6.63181ZM63.1566 15.7897H63.0066V15.9397H63.1566V15.7897ZM64.8829 15.7897V15.9397H65.0329V15.7897H64.8829ZM64.8829 6.63181V6.48181H64.7329V6.63181H64.8829ZM67.9145 6.63181V6.78181H68.0645V6.63181H67.9145ZM67.9145 5.05286H68.0645V4.90286H67.9145V5.05286ZM64.8829 5.05286H64.7329V5.20286H64.8829V5.05286ZM67.9145 2.63181V2.78181H68.0645V2.63181H67.9145ZM67.9145 1.05286H68.0645V0.902853H67.9145V1.05286ZM63.1566 5.05286V5.20286H63.3066V5.05286H63.1566ZM61.2197 5.05286V4.90286H61.0697V5.05286H61.2197ZM69.1617 15.7897H69.0117V15.9397H69.1617V15.7897ZM70.888 15.7897V15.9397H71.038V15.7897H70.888ZM70.888 5.05286H71.038V4.90286H70.888V5.05286ZM69.1617 5.05286V4.90286H69.0117V5.05286H69.1617ZM72.8108 12.2529V12.1029H72.6581L72.6609 12.2555L72.8108 12.2529ZM79.8635 8.31602L79.7145 8.33322L79.7298 8.46602H79.8635V8.31602ZM81.6319 8.31602V8.46602H81.7937L81.7815 8.30473L81.6319 8.31602ZM74.5793 12.2529L74.7291 12.2454L74.722 12.1029H74.5793V12.2529ZM85.485 6.77918L85.3364 6.79912L85.3863 7.17155L85.6066 6.8671L85.485 6.77918ZM85.2535 5.05286L85.4021 5.03292L85.3847 4.90286H85.2535V5.05286ZM83.7587 5.05286V4.90286H83.6087V5.05286H83.7587ZM83.7587 20.0002H83.6087V20.1502H83.7587V20.0002ZM85.485 20.0002V20.1502H85.635V20.0002H85.485ZM85.485 14.1476L85.6118 14.0674L85.335 13.6299V14.1476H85.485ZM113.903 15.7897V15.9397H114.053V15.7897H113.903ZM113.903 14.2108H114.053V14.0608H113.903V14.2108ZM110.956 6.63181V6.48181H110.806V6.63181H110.956ZM113.735 6.63181V6.78181H113.885V6.63181H113.735ZM113.735 5.05286H113.885V4.90286H113.735V5.05286ZM110.956 5.05286H110.806V5.20286H110.956V5.05286ZM110.956 2.04233H111.106V1.89233H110.956V2.04233ZM109.23 2.04233V1.89233H109.08V2.04233H109.23ZM109.23 5.05286V5.20286H109.38V5.05286H109.23ZM107.293 5.05286V4.90286H107.143V5.05286H107.293ZM107.293 6.63181H107.143V6.78181H107.293V6.63181ZM109.23 6.63181H109.38V6.48181H109.23V6.63181ZM41.2353 15.9397C43.5736 15.9397 45.4671 15.1862 46.7763 13.8609C48.0851 12.5359 48.7959 10.6534 48.7959 8.42129H48.4959C48.4959 10.5892 47.8066 12.3909 46.5628 13.6501C45.3193 14.9089 43.5076 15.6397 41.2353 15.6397V15.9397ZM48.7959 8.42129C48.7959 6.17879 48.0852 4.29616 46.7762 2.97365C45.4669 1.65086 43.5733 0.902853 41.2353 0.902853V1.20286C43.5079 1.20286 45.3196 1.92854 46.5629 3.1847C47.8066 4.44114 48.4959 6.24273 48.4959 8.42129H48.7959ZM41.2353 0.902853H36.5195V1.20286H41.2353V0.902853ZM36.3695 1.05286V15.7897H36.6695V1.05286H36.3695ZM36.5195 15.9397H41.2353V15.6397H36.5195V15.9397ZM38.3511 2.88707H41.2353V2.58707H38.3511V2.88707ZM41.2353 2.88707C42.9928 2.88707 44.3342 3.43411 45.2369 4.38757C46.1408 5.34226 46.6222 6.7226 46.6222 8.42129H46.9222C46.9222 6.66734 46.4246 5.20557 45.4548 4.18131C44.4838 3.15582 43.0568 2.58707 41.2353 2.58707V2.88707ZM46.6222 8.42129C46.6222 10.1092 46.1409 11.4898 45.2368 12.4472C44.3339 13.4034 42.9924 13.9555 41.2353 13.9555V14.2555C43.0572 14.2555 44.4842 13.6812 45.4549 12.6532C46.4245 11.6265 46.9222 10.1649 46.9222 8.42129H46.6222ZM41.2353 13.9555H38.3511V14.2555H41.2353V13.9555ZM38.5011 14.1055V2.73707H38.2011V14.1055H38.5011ZM55.6469 16.066C58.2029 16.066 60.0329 14.4362 60.4677 12.2186L60.1733 12.1608C59.7661 14.2379 58.0593 15.766 55.6469 15.766V16.066ZM60.3205 12.0397H58.5732V12.3397H60.3205V12.0397ZM58.4279 12.1523C58.0898 13.465 56.9794 14.2292 55.5205 14.2292V14.5292C57.0932 14.5292 58.3407 13.6934 58.7184 12.2271L58.4279 12.1523ZM55.5205 14.2292C54.5364 14.2292 53.7455 13.8852 53.1923 13.3047C52.6379 12.7228 52.3116 11.8918 52.281 10.9009L51.9811 10.9101C52.0136 11.9612 52.3611 12.8671 52.9751 13.5116C53.5903 14.1573 54.4626 14.5292 55.5205 14.5292V14.2292ZM52.2811 10.9055V10.7581H51.9811L51.981 10.9055H52.2811ZM52.1311 10.9081H60.4679V10.6081H52.1311V10.9081ZM60.6174 10.7706C60.6383 10.5194 60.6601 10.2603 60.6601 10.0213H60.36C60.36 10.2454 60.3396 10.4916 60.3184 10.7457L60.6174 10.7706ZM60.66 10.0173C60.617 8.39728 60.0904 7.08398 59.1735 6.17527C58.2564 5.26634 56.9633 4.77655 55.4153 4.77655V5.07655C56.8988 5.07655 58.111 5.54464 58.9623 6.38835C59.8138 7.23227 60.3188 8.46634 60.3601 10.0252L60.66 10.0173ZM55.4153 4.77655C53.8609 4.77655 52.5462 5.34961 51.621 6.34829C50.6967 7.34602 50.1705 8.75806 50.1705 10.4213H50.4705C50.4705 8.82135 50.9759 7.48602 51.8411 6.55217C52.7054 5.61927 53.9381 5.07655 55.4153 5.07655V4.77655ZM50.1705 10.4213C50.1705 12.0957 50.7077 13.5089 51.6678 14.5044C52.6285 15.5004 54.0008 16.066 55.6469 16.066V15.766C54.0718 15.766 52.781 15.2264 51.8838 14.2961C50.986 13.3653 50.4705 12.031 50.4705 10.4213H50.1705ZM52.3856 9.34094C52.546 7.67702 53.9279 6.59234 55.4363 6.59234V6.29234C53.7869 6.29234 52.2635 7.48134 52.087 9.31216L52.3856 9.34094ZM55.4363 6.59234C56.3023 6.59234 57.0281 6.84161 57.5561 7.30269C58.0832 7.76302 58.4267 8.44614 58.508 9.34013L58.8068 9.31297C58.7196 8.35433 58.3473 7.59534 57.7534 7.07672C57.1604 6.55886 56.3598 6.29234 55.4363 6.29234V6.59234ZM58.6574 9.17655H52.2363V9.47655H58.6574V9.17655ZM61.2197 6.78181H63.1566V6.48181H61.2197V6.78181ZM63.0066 6.63181V15.7897H63.3066V6.63181H63.0066ZM63.1566 15.9397H64.8829V15.6397H63.1566V15.9397ZM65.0329 15.7897V6.63181H64.7329V15.7897H65.0329ZM64.8829 6.78181H67.9145V6.48181H64.8829V6.78181ZM68.0645 6.63181V5.05286H67.7645V6.63181H68.0645ZM67.9145 4.90286H64.8829V5.20286H67.9145V4.90286ZM65.0329 5.05286V3.81076H64.7329V5.05286H65.0329ZM65.0329 3.81076C65.0329 3.41394 65.1102 3.16804 65.2562 3.01797C65.4013 2.86879 65.6461 2.78181 66.0618 2.78181V2.48181C65.6144 2.48181 65.2697 2.57378 65.0411 2.8088C64.8134 3.04294 64.7329 3.38652 64.7329 3.81076H65.0329ZM66.0618 2.78181H67.9145V2.48181H66.0618V2.78181ZM68.0645 2.63181V1.05286H67.7645V2.63181H68.0645ZM67.9145 0.902853H65.9566V1.20286H67.9145V0.902853ZM65.9566 0.902853C64.9374 0.902853 64.1893 1.13319 63.699 1.6378C63.2096 2.14154 63.0066 2.88848 63.0066 3.85286H63.3066C63.3066 2.9225 63.5036 2.26944 63.9141 1.84686C64.3239 1.42515 64.9758 1.20286 65.9566 1.20286V0.902853ZM63.0066 3.85286V5.05286H63.3066V3.85286H63.0066ZM63.1566 4.90286H61.2197V5.20286H63.1566V4.90286ZM61.0697 5.05286V6.63181H61.3697V5.05286H61.0697ZM70.0459 3.39233C70.7584 3.39233 71.3117 2.86388 71.3117 2.12654H71.0117C71.0117 2.69447 70.5965 3.09233 70.0459 3.09233V3.39233ZM71.3117 2.12654C71.3117 1.3892 70.7584 0.860748 70.0459 0.860748V1.16075C70.5965 1.16075 71.0117 1.55862 71.0117 2.12654H71.3117ZM70.0459 0.860748C69.3333 0.860748 68.7801 1.3892 68.7801 2.12654H69.0801C69.0801 1.55862 69.4953 1.16075 70.0459 1.16075V0.860748ZM68.7801 2.12654C68.7801 2.86388 69.3333 3.39233 70.0459 3.39233V3.09233C69.4953 3.09233 69.0801 2.69446 69.0801 2.12654H68.7801ZM69.1617 15.9397H70.888V15.6397H69.1617V15.9397ZM71.038 15.7897V5.05286H70.738V15.7897H71.038ZM70.888 4.90286H69.1617V5.20286H70.888V4.90286ZM69.0117 5.05286V15.7897H69.3117V5.05286H69.0117ZM72.6609 12.2555C72.6827 13.4794 73.1933 14.4392 74.0632 15.0888C74.9283 15.7349 76.1369 16.066 77.5477 16.066V15.766C76.1795 15.766 75.0407 15.4445 74.2427 14.8485C73.4494 14.256 72.9811 13.3842 72.9608 12.2502L72.6609 12.2555ZM77.5477 16.066C78.7614 16.066 79.8678 15.7494 80.675 15.1666C81.4854 14.5814 81.9924 13.7278 81.9924 12.6739H81.6924C81.6924 13.62 81.2415 14.3875 80.4994 14.9234C79.7539 15.4616 78.7129 15.766 77.5477 15.766V16.066ZM81.9924 12.6739C81.9924 12.0582 81.8656 11.5561 81.6281 11.1464C81.3906 10.7365 81.048 10.4289 80.6321 10.1934C79.8078 9.72662 78.6788 9.53521 77.4604 9.38816L77.4243 9.68598C78.648 9.83366 79.7192 10.0212 80.4843 10.4544C80.8632 10.669 81.1627 10.9416 81.3686 11.2968C81.5746 11.6522 81.6924 12.1001 81.6924 12.6739H81.9924ZM77.4604 9.38816C76.6734 9.29244 76.025 9.2099 75.5706 9.01264C75.3473 8.91574 75.182 8.79539 75.0716 8.64144C74.9622 8.48889 74.8977 8.29075 74.8977 8.02129H74.5977C74.5977 8.3413 74.6753 8.60368 74.8278 8.81627C74.9792 9.02744 75.1954 9.17684 75.4511 9.28783C75.9546 9.50636 76.6535 9.59223 77.4243 9.68598L77.4604 9.38816ZM74.8977 8.02129C74.8977 7.58571 75.1171 7.22464 75.5207 6.966C75.9288 6.70455 76.5242 6.55023 77.253 6.55023V6.25023C76.4869 6.25023 75.8298 6.41171 75.3589 6.71341C74.8836 7.01792 74.5977 7.46738 74.5977 8.02129H74.8977ZM77.253 6.55023C78.673 6.55023 79.5993 7.33466 79.7145 8.33322L80.0125 8.29883C79.8751 7.10791 78.7802 6.25023 77.253 6.25023V6.55023ZM79.8635 8.46602H81.6319V8.16602H79.8635V8.46602ZM81.7815 8.30473C81.6941 7.14752 81.1893 6.26452 80.384 5.67155C79.5828 5.08165 78.4964 4.78726 77.2542 4.77655L77.2517 5.07654C78.4517 5.08688 79.4704 5.37144 80.2061 5.91313C80.9376 6.45173 81.4012 7.25294 81.4823 8.32731L81.7815 8.30473ZM77.2542 4.77655C76.0183 4.7658 74.9316 5.08796 74.1497 5.67502C73.3649 6.26431 72.8924 7.11792 72.8924 8.1476H73.1924C73.1924 7.21938 73.6147 6.45194 74.3299 5.91492C75.048 5.37565 76.0665 5.06623 77.2517 5.07654L77.2542 4.77655ZM72.8924 8.1476C72.8924 8.72757 73.0171 9.20386 73.2505 9.59486C73.4837 9.98571 73.8197 10.2816 74.227 10.51C75.0348 10.9631 76.1416 11.1598 77.3399 11.307L77.3765 11.0092C76.1748 10.8617 75.1237 10.669 74.3737 10.2483C74.002 10.0399 73.7091 9.77792 73.5081 9.44113C73.3072 9.1045 73.1924 8.68342 73.1924 8.1476H72.8924ZM77.3399 11.307C78.1508 11.403 78.8181 11.4751 79.2871 11.6822C79.5164 11.7834 79.6879 11.913 79.8033 12.0854C79.9186 12.2574 79.9872 12.4857 79.9872 12.8002H80.2872C80.2872 12.4411 80.2084 12.1509 80.0526 11.9184C79.897 11.6862 79.6737 11.5249 79.4083 11.4077C78.8878 11.1779 78.1656 11.1026 77.3765 11.0092L77.3399 11.307ZM79.9872 12.8002C79.9872 13.2324 79.7554 13.5995 79.3312 13.8652C78.9038 14.133 78.2864 14.2923 77.5477 14.2923V14.5923C78.3248 14.5923 79.0021 14.4254 79.4905 14.1195C79.9821 13.8115 80.2872 13.3575 80.2872 12.8002H79.9872ZM77.5477 14.2923C76.6779 14.2923 75.9858 14.0672 75.5071 13.702C75.0305 13.3384 74.7584 12.8314 74.7291 12.2454L74.4295 12.2603C74.4633 12.9375 74.7807 13.5252 75.3251 13.9405C75.8675 14.3543 76.6281 14.5923 77.5477 14.5923V14.2923ZM74.5793 12.1029H72.8108V12.4029H74.5793V12.1029ZM89.1693 4.77655C87.3022 4.77655 86.1022 5.67014 85.3635 6.69126L85.6066 6.8671C86.2995 5.90927 87.4152 5.07655 89.1693 5.07655V4.77655ZM85.6337 6.75924L85.4021 5.03292L85.1048 5.0728L85.3364 6.79912L85.6337 6.75924ZM85.2535 4.90286H83.7587V5.20286H85.2535V4.90286ZM83.6087 5.05286V20.0002H83.9087V5.05286H83.6087ZM83.7587 20.1502H85.485V19.8502H83.7587V20.1502ZM85.635 20.0002V14.1476H85.335V20.0002H85.635ZM85.3583 14.2278C86.0421 15.3087 87.3146 16.066 89.1693 16.066V15.766C87.4028 15.766 86.2332 15.0497 85.6118 14.0674L85.3583 14.2278ZM89.1693 16.066C90.6921 16.066 92.0216 15.4983 92.9699 14.5037C93.918 13.5095 94.4772 12.0973 94.4772 10.4213H94.1772C94.1772 12.0295 93.6416 13.3647 92.7528 14.2967C91.8643 15.2285 90.6149 15.766 89.1693 15.766V16.066ZM94.4772 10.4213C94.4772 8.64202 93.9191 7.22812 92.9685 6.25838C92.0179 5.28874 90.6878 4.77655 89.1693 4.77655V5.07655C90.6192 5.07655 91.868 5.56436 92.7542 6.4684C93.6404 7.37234 94.1772 8.70582 94.1772 10.4213H94.4772ZM89.0008 14.2292C87.9897 14.2292 87.1471 13.836 86.5555 13.1643C85.9626 12.4909 85.614 11.5282 85.614 10.3792H85.314C85.314 11.5881 85.6812 12.6253 86.3304 13.3625C86.9809 14.1013 87.9067 14.5292 89.0008 14.5292V14.2292ZM85.614 10.3792C85.614 9.26277 85.962 8.32134 86.5546 7.66094C87.146 7.00185 87.989 6.61339 89.0008 6.61339V6.31339C87.9074 6.31339 86.982 6.73545 86.3313 7.46058C85.6818 8.18438 85.314 9.20086 85.314 10.3792H85.614ZM89.0008 6.61339C90.0236 6.61339 90.8716 7.00211 91.4653 7.66602C92.0604 8.33135 92.4087 9.28318 92.4087 10.4213H92.7087C92.7087 9.22255 92.3413 8.19544 91.689 7.46603C91.0353 6.7352 90.1044 6.31339 89.0008 6.31339V6.61339ZM92.4087 10.4213C92.4087 11.5594 92.0604 12.5112 91.4653 13.1765C90.8716 13.8405 90.0236 14.2292 89.0008 14.2292V14.5292C90.1044 14.5292 91.0353 14.1074 91.689 13.3765C92.3413 12.6471 92.7087 11.62 92.7087 10.4213H92.4087ZM101.247 16.066C102.852 16.066 104.224 15.4943 105.194 14.4969C106.164 13.4998 106.724 12.087 106.724 10.4213H106.424C106.424 12.0187 105.888 13.3533 104.979 14.2877C104.07 15.2219 102.779 15.766 101.247 15.766V16.066ZM106.724 10.4213C106.724 8.75555 106.164 7.34276 105.194 6.34564C104.224 5.34824 102.852 4.77655 101.247 4.77655V5.07655C102.779 5.07655 104.07 5.62064 104.979 6.55482C105.888 7.48928 106.424 8.82387 106.424 10.4213H106.724ZM101.247 4.77655C99.642 4.77655 98.2704 5.34824 97.3002 6.34564C96.3303 7.34276 95.7709 8.75555 95.7709 10.4213H96.0709C96.0709 8.82387 96.6063 7.48928 97.5153 6.55482C98.424 5.62064 99.7156 5.07655 101.247 5.07655V4.77655ZM95.7709 10.4213C95.7709 12.087 96.3303 13.4998 97.3002 14.4969C98.2704 15.4943 99.642 16.066 101.247 16.066V15.766C99.7156 15.766 98.424 15.2219 97.5153 14.2877C96.6063 13.3533 96.0709 12.0187 96.0709 10.4213H95.7709ZM101.247 14.2292C100.226 14.2292 99.3775 13.8308 98.7831 13.1612C98.1874 12.4901 97.8393 11.5378 97.8393 10.4213H97.5393C97.5393 11.5995 97.907 12.6262 98.5587 13.3603C99.2117 14.096 100.142 14.5292 101.247 14.5292V14.2292ZM97.8393 10.4213C97.8393 9.30476 98.1874 8.35249 98.7831 7.68139C99.3775 7.01175 100.226 6.61339 101.247 6.61339V6.31339C100.142 6.31339 99.2117 6.74661 98.5587 7.48223C97.907 8.2164 97.5393 9.24307 97.5393 10.4213H97.8393ZM101.247 6.61339C102.269 6.61339 103.117 7.01175 103.711 7.68139C104.307 8.35249 104.655 9.30476 104.655 10.4213H104.955C104.955 9.24307 104.587 8.2164 103.936 7.48223C103.283 6.74661 102.352 6.31339 101.247 6.31339V6.61339ZM104.655 10.4213C104.655 11.5378 104.307 12.4901 103.711 13.1612C103.117 13.8308 102.269 14.2292 101.247 14.2292V14.5292C102.352 14.5292 103.283 14.096 103.936 13.3603C104.587 12.6262 104.955 11.5995 104.955 10.4213H104.655ZM109.08 12.9897C109.08 13.9514 109.266 14.6991 109.748 15.2038C110.231 15.71 110.98 15.9397 112.03 15.9397V15.6397C111.016 15.6397 110.366 15.4168 109.965 14.9967C109.562 14.5751 109.38 13.9228 109.38 12.9897H109.08ZM112.03 15.9397H113.903V15.6397H112.03V15.9397ZM114.053 15.7897V14.2108H113.753V15.7897H114.053ZM113.903 14.0608H112.198V14.3608H113.903V14.0608ZM112.198 14.0608C111.746 14.0608 111.488 13.9771 111.337 13.8238C111.185 13.6701 111.106 13.4112 111.106 12.9686H110.806C110.806 13.4314 110.885 13.7935 111.123 14.0345C111.361 14.276 111.724 14.3608 112.198 14.3608V14.0608ZM111.106 12.9686V6.63181H110.806V12.9686H111.106ZM110.956 6.78181H113.735V6.48181H110.956V6.78181ZM113.885 6.63181V5.05286H113.585V6.63181H113.885ZM113.735 4.90286H110.956V5.20286H113.735V4.90286ZM111.106 5.05286V2.04233H110.806V5.05286H111.106ZM110.956 1.89233H109.23V2.19233H110.956V1.89233ZM109.08 2.04233V5.05286H109.38V2.04233H109.08ZM109.23 4.90286H107.293V5.20286H109.23V4.90286ZM107.143 5.05286V6.63181H107.443V5.05286H107.143ZM107.293 6.78181H109.23V6.48181H107.293V6.78181ZM109.08 6.63181V12.9897H109.38V6.63181H109.08Z" fill="white"/>
</g>
<path d="M9.13914 8.13965H0V17.2788H9.13914V8.13965Z" fill="white"/>
<path d="M9.14062 0V8.13954L17.9942 16.9931H24.5629V7.99674L16.5662 0H9.14062Z" fill="white"/>
</g>
<defs>
<clipPath id="clip0_171_813">
<rect width="115" height="21" fill="white"/>
</clipPath>
</defs>
</svg>
