<svg width="100" height="100" viewBox="0 0 100 100" fill="none" xmlns="http://www.w3.org/2000/svg">
<path fill-rule="evenodd" clip-rule="evenodd" d="M43.8152 0C47.9047 0 51.9943 0 56.0837 0C56.2003 0.107848 56.3091 0.299239 56.435 0.311222C63.0067 0.942443 69.076 3.1345 74.7867 6.34326C83.3721 11.1675 89.9357 18.0446 94.4766 26.7281C99.3772 36.0997 100.804 46.1329 99.5923 56.6276C98.9419 62.2601 97.2754 67.563 94.7641 72.5569C91.697 78.6565 87.5736 83.9888 82.2317 88.3653C78.2216 91.651 73.9187 94.4039 69.141 96.3702C60.766 99.8176 52.0532 100.602 43.0984 99.5901C37.5297 98.9609 32.2926 97.2566 27.3425 94.7828C20.2529 91.2396 14.2746 86.2533 9.58354 79.8263C5.96415 74.868 3.32986 69.438 1.67242 63.4866C0.989648 61.036 0.805825 58.4981 0 56.0927C0 52.0024 0 47.9125 0 43.8222C0.107735 43.7056 0.301322 43.5952 0.310917 43.471C0.748591 37.7505 2.60955 32.4171 5.12684 27.3584C8.65837 20.2613 13.6519 14.2804 20.0805 9.58915C25.0873 5.93584 30.5683 3.2783 36.5858 1.62852C38.9838 0.971303 41.4694 0.812148 43.8152 0ZM84.6513 52.7047C84.6128 52.7047 84.5746 52.7047 84.5359 52.7044C84.5359 47.3306 84.9006 41.9264 84.451 36.5904C83.763 28.4254 79.413 22.4465 71.8048 19.3302C64.2988 16.2561 57.2671 17.633 51.0578 22.8394C50.0886 23.6519 49.5987 23.4568 48.753 22.7376C43.9419 18.6499 38.3572 16.9611 32.1475 18.1341C22.116 20.0283 15.4208 28.2319 15.2607 38.6504C15.1684 44.6668 15.1656 50.687 15.2593 56.703C15.5004 72.1937 26.0002 85.2968 40.4456 88.1385C45.3534 89.1042 50.3416 88.6333 55.2981 88.663C55.9647 88.6671 56.5165 88.3538 56.9914 87.8666C58.1734 86.6534 59.3701 85.4533 60.5826 84.2698C61.6642 83.2145 61.7376 82.1962 60.6138 81.1142C59.4775 80.02 58.3455 78.9184 57.2762 77.7605C56.5444 76.9677 55.7278 76.6541 54.6483 76.679C52.0207 76.7389 49.3881 76.6184 46.7629 76.7117C35.2745 77.1205 27.6428 67.1681 27.3031 57.9673C27.0555 51.2575 27.1737 44.5304 27.2821 37.8132C27.3553 33.2753 31.0683 29.8169 35.5657 29.8107C40.3879 29.8037 43.8475 33.2454 43.9199 38.24C43.984 42.6793 43.8962 47.1208 43.9541 51.5601C44.0051 55.4539 46.722 58.1093 50.329 57.9165C53.5607 57.744 55.9086 55.1125 55.9477 51.5019C55.9973 46.9454 55.9576 42.388 55.9935 37.831C56.0138 35.213 57.0984 33.0572 59.1836 31.5013C61.8923 29.4799 64.9131 29.1489 67.9283 30.6134C71.0207 32.1153 72.6193 34.77 72.6328 38.2216C72.6715 48.0953 72.6604 57.969 72.6375 67.8425C72.6313 70.3602 73.4173 72.4523 75.628 73.7941C79.6637 76.244 84.5402 73.4008 84.6296 68.4788C84.7256 63.2223 84.6513 57.9629 84.6513 52.7047Z" fill="#61D90C"/>
</svg>
